<?xml version="1.0" encoding="UTF-8"?>
<svg width="24px" height="24px" viewBox="0 0 24 24" version="1.1" xmlns="http://www.w3.org/2000/svg" xmlns:xlink="http://www.w3.org/1999/xlink">
    <!-- Generator: Sketch 63.1 (92452) - https://sketch.com -->
    <title>MICHELIN / Icons / Bib</title>
    <desc>Created with Sketch.</desc>
    <g id="MICHELIN-/-Icons-/-Bib" stroke="none" stroke-width="1" fill="none" fill-rule="evenodd">
        <path d="M9.16508946,4.96876778 C10.2208449,3.19416541 13.7240332,3.05027873 14.8997608,4.96876778 C18.9068325,6.16782344 19.7466379,9.78897153 19.4347102,11.9472717 C19.4347102,11.9472717 22.362032,14.9449109 19.7466379,18.7579079 C19.3867213,19.0696623 18.2109937,20.5564914 17.7311049,20.3886236 C17.0112717,19.213549 18.0910215,18.566059 18.0910215,18.566059 C18.2109937,18.2543045 21.4022544,15.0168542 17.9230604,12.2350451 C18.1390104,12.0911584 18.9068325,6.28772901 12.9082222,6.11986122 C13.9879721,6.02393676 13.7240332,5.59227673 13.7240332,5.59227673 C13.1721611,4.6330322 10.9166836,4.68099442 10.2208449,5.44839005 C10.2208449,5.44839005 10.0528838,5.76014452 10.8926892,6.11986122 C5.3259789,6.28772901 5.8538566,12.0911584 6.06980657,12.2350451 C6.06980657,12.2350451 1.9907516,15.0168542 5.8538566,18.566059 C5.8538566,18.566059 7.02958421,19.1655868 6.52570095,20.4126047 C6.52570095,20.4126047 5.68589551,20.5804725 4.17424573,18.7579079 C1.77480163,15.2087031 4.41419014,12.0911584 4.41419014,12.0911584 C4.05427353,9.78897153 5.56592331,6.04791788 9.16508946,4.96876778 Z M14.3541468,15.0152171 C14.4694586,14.9861436 16.1358883,14.612483 15.8115496,17.3909844 L15.8115496,17.3909844 L16.5553773,16.1439665 C17.5871382,15.8561932 17.083255,16.7434944 17.083255,16.7434944 C16.5553773,17.6307955 15.5955996,19.5732657 12.5243112,19.5732657 C12.5243112,19.5732657 9.47701719,19.5732657 7.98936185,17.6547767 C7.70512001,17.2692342 7.90190282,17.0553907 7.96917899,16.998718 L7.98936185,16.9833055 C7.98936185,16.9833055 8.32528402,16.7434944 8.82916728,17.3670033 C10.2093693,18.7464386 11.7095888,18.8663895 11.9600602,18.8768201 L11.9600602,18.8768201 L12.0219669,18.8774639 C12.1193438,18.8753664 12.466039,18.8606841 12.5483056,18.7579079 C13.0042,15.400552 14.3478887,15.0168542 14.3541468,15.0152171 Z M9.54900051,8.01436916 C10.772717,8.01436916 11.6125224,9.38129261 11.5645336,11.0359894 C11.4925502,13.0264218 10.4847837,14.129553 9.54900051,14.129553 C8.49324511,14.129553 7.36550638,12.9304974 7.36550638,11.2518194 C7.36550638,9.52517929 8.2533007,8.01436916 9.54900051,8.01436916 Z M14.5878331,8.01436916 C15.8835329,8.01436916 16.6273606,9.38129261 16.6273606,11.0359894 C16.6273606,13.0264218 15.7395663,14.129553 14.5878331,14.129553 C13.7000388,14.129553 12.404339,12.9304974 12.3803445,11.2518194 C12.3563501,9.52517929 13.4121055,8.01436916 14.5878331,8.01436916 Z M9.69296716,8.39806697 C8.68520064,8.39806697 7.86938964,9.78897153 7.86938964,11.2518194 C7.86938964,11.2518194 7.86938964,12.3549506 8.49324511,13.0264218 C8.18131738,11.2758006 8.80517284,10.7242349 9.54900051,10.7242349 C10.2208449,10.7242349 10.9166836,11.2758006 10.4607893,13.1223463 C11.0606503,12.4988373 11.1086392,11.2518194 11.1086392,11.2518194 C11.1806225,9.78897153 10.6047559,8.39806697 9.69296716,8.39806697 Z M14.5878331,8.6378781 C13.8440054,8.6378781 12.9082222,9.78897153 12.9082222,11.2518194 C12.9082222,11.2518194 12.9082222,12.3549506 13.7000388,13.0264218 C13.3881111,11.2758006 13.9639777,10.7242349 14.5878331,10.7242349 C15.3076663,10.7242349 15.9795107,11.2758006 15.5955996,13.1223463 C16.267444,12.4988373 16.267444,11.2518194 16.267444,11.2518194 C16.2914384,9.78897153 15.5955996,8.6378781 14.5878331,8.6378781 Z" id="MICHELIN-Bib-Gourmand" fill="#BD2333" fill-rule="nonzero"></path>
    </g>
</svg>